<svg width="32" height="32" viewBox="0 0 32 32" fill="none" xmlns="http://www.w3.org/2000/svg">
  <g clip-path="url(#clip0_340_196)">
    <path d="M4 0H28C30.2 0 32 1.8 32 4V28C32 30.2 30.2 32 28 32H4C1.8 32 0 30.2 0 28V4C0 1.8 1.8 0 4 0Z"
      fill="url(#paint0_linear_340_196)" />
    <path
      d="M21.2 5H10.8C7.6 5 5 7.7 5 10.9V21.1C5 24.3 7.6 27 10.8 27H21.2C24.4 27 27 24.3 27 21.1V10.9C27 7.7 24.4 5 21.2 5ZM25 20.9C25 23.1 23.2 25 21 25H11C8.8 25 7 23.1 7 20.9V11C7 8.8 8.7 7 11 7H21C23.2 7 25 8.9 25 11.1V20.9Z"
      fill="white" />
    <path
      d="M16 10.4001C12.9 10.3001 10.3 12.8001 10.2 15.9001C10.1 19.0001 12.6 21.6001 15.7 21.7001C18.8 21.8001 21.4 19.3001 21.5 16.2001V16.1001C21.6 12.9001 19.1 10.4001 16 10.4001ZM16 19.6001C14 19.6001 12.3 18.0001 12.3 16.0001C12.3 14.0001 13.9 12.3001 15.9 12.3001C17.9 12.3001 19.6 13.9001 19.6 15.9001V16.0001C19.6 18.0001 18 19.6001 16 19.6001Z"
      fill="white" />
    <path
      d="M21.8 11.3C22.4627 11.3 23 10.7179 23 9.99995C23 9.28198 22.4627 8.69995 21.8 8.69995C21.1372 8.69995 20.6 9.28198 20.6 9.99995C20.6 10.7179 21.1372 11.3 21.8 11.3Z"
      fill="white" />
  </g>
  <defs>
    <linearGradient id="paint0_linear_340_196" x1="5.8035" y1="33.6608" x2="26.1965" y2="-1.6608"
      gradientUnits="userSpaceOnUse">
      <stop stop-color="#FEC053" />
      <stop offset="0.327" stop-color="#F2203E" />
      <stop offset="0.648" stop-color="#B729A8" />
      <stop offset="1" stop-color="#5342D6" />
    </linearGradient>
    <clipPath id="clip0_340_196">
      <rect width="32" height="32" fill="white" />
    </clipPath>
  </defs>
</svg>